Coordinates
version=1
nRows=14
nColumns=36
inDegrees=yes

Units are S.I. units (second, meters, Newtons, ...)
If the header above contains a line with 'inDegrees', this indicates whether rotational values are in degrees (yes) or radians (no).

endheader
time	pelvis_tilt	pelvis_list	pelvis_rotation	pelvis_tx	pelvis_ty	pelvis_tz	hip_flexion_r	hip_adduction_r	hip_rotation_r	knee_angle_r	knee_angle_r_beta	ankle_angle_r	subtalar_angle_r	mtp_angle_r	hip_flexion_l	hip_adduction_l	hip_rotation_l	knee_angle_l	knee_angle_l_beta	ankle_angle_l	subtalar_angle_l	mtp_angle_l	lumbar_extension	lumbar_bending	lumbar_rotation	arm_flex_r	arm_add_r	arm_rot_r	elbow_flex_r	pro_sup_r	arm_flex_l	arm_add_l	arm_rot_l	elbow_flex_l	pro_sup_l
      0.00000000	      0.55088630	     -1.24178624	     -0.37687595	     -0.12845083	      1.24650171	      0.06333353	      1.58944335	     -0.66186411	     -0.97002600	      7.60071840	      0.13265756	     12.34772591	      3.47682243	     -7.30589046	      0.20396275	     -3.03396418	     -7.19526716	      5.99010046	      0.10454698	     14.20847338	      1.03081517	     -7.30589046	      2.11238410	      2.84659075	     -4.05295275	    -18.26641901	    -21.80324078	     17.16141937	     89.33118005	     85.64385896	    -21.06267682	    -20.65958097	     10.76126255	     96.04181269	     89.06864699
      0.01666670	     -0.96409103	     -0.39407781	     -0.64773230	     -0.12751420	      1.24254443	      0.06317079	      3.10140351	     -1.49511925	     -0.65718841	      7.11913480	      0.12425234	     14.11618520	      5.16263039	     -7.32237325	      1.65864195	     -1.96341354	     -9.26015997	      5.72726338	      0.09995960	     14.25464058	      2.52115603	     -7.32237325	      5.05067752	      1.85531704	     -3.28613163	    -19.90088065	    -23.95163670	     16.93244525	     92.01216710	     85.85201848	    -22.77036556	    -21.91584411	     10.57178491	     98.06274232	     88.77631521
      0.03333330	     -2.39667579	      0.48907605	     -1.42840510	     -0.12527730	      1.23670705	      0.06510199	      4.47254371	     -2.29573666	     -0.76575929	      6.53830088	      0.11411488	     14.45076718	      5.29419697	     -7.34500057	      3.15384141	     -1.17006632	    -10.99106625	      5.64695915	      0.09855803	     14.88822373	      4.25708928	     -7.34500057	      7.04647672	      0.58495596	     -2.33738065	    -21.71952315	    -24.97051849	     15.85636680	     94.69159477	     89.20899791	    -25.48992967	    -23.66349229	      9.08916330	    100.77746663	     89.57899473
      0.05000000	     -2.65477300	      0.94378323	     -1.77558659	     -0.12512549	      1.24150948	      0.06634902	      4.63438133	     -2.69894164	     -0.90237294	      5.95328685	      0.10390446	     14.60006768	      5.54027475	     -7.34862745	      2.83191772	     -0.61315341	    -11.32541982	      4.40835763	      0.07694036	     14.24143554	      4.66957180	     -7.34862745	      7.42673087	     -0.08088869	     -1.74952731	    -23.07943582	    -25.68674371	     15.37077261	     95.88494839	     89.47972216	    -27.24877978	    -24.76764546	      8.30501463	    101.85339525	     89.76011352
      0.06666670	     -2.94547967	      1.20727290	     -1.85399662	     -0.12649718	      1.24238042	      0.06722393	      4.74190975	     -2.87019386	     -0.70608253	      5.45119396	      0.09514128	     14.45068220	      5.64547915	     -7.37195687	      2.84563652	     -0.32010669	    -11.27247177	      3.80264683	      0.06636871	     13.66726492	      4.89225222	     -7.37195687	      7.57449940	     -0.50092998	     -1.35955780	    -24.30414005	    -26.43562059	     15.03097563	     97.30388901	     87.78593137	    -28.61353355	    -25.99158138	      8.22859078	    102.73224005	     87.98140855
      0.08333330	     -3.05968378	      1.43794843	     -1.91749866	     -0.12403513	      1.24593345	      0.06720219	      4.55931169	     -3.04403623	     -0.53580623	      4.91508729	      0.08578446	     14.13873445	      6.11155281	     -7.39988145	      2.82140453	     -0.10258373	    -11.44437394	      3.50139051	      0.06111079	     13.27755820	      5.52921289	     -7.39988145	      7.56623795	     -0.72749685	     -0.54553330	    -26.33679089	    -26.67483804	     13.02027785	     98.39103377	     92.82433241	    -29.70918319	    -27.11098932	      7.93165423	    103.15063580	     93.02629567
      0.10000000	     -3.05628267	      1.57290130	     -1.88537506	     -0.12196103	      1.24592338	      0.06710648	      4.20771342	     -3.18218065	     -0.53378078	      4.29965051	      0.07504306	     13.59991195	      6.07281069	     -7.41356817	      2.59277743	      0.11114737	    -11.46289543	      3.01176494	      0.05256521	     12.59893336	      5.44414317	     -7.41356817	      7.44028573	     -0.92888911	     -0.45428959	    -28.02063308	    -27.59636827	     12.39921413	     99.81836857	     90.95316511	    -31.61036994	    -28.12317721	      7.39127980	    104.10201495	     91.13639948
      0.11666670	     -3.01899463	      1.68588529	     -1.96059190	     -0.12200923	      1.24667483	      0.06797209	      3.89913714	     -3.28604616	     -0.48636224	      3.94856743	      0.06891550	     13.03254156	      6.02579095	     -7.43241593	      2.41752097	      0.26324802	    -11.93882159	      2.68068202	      0.04678673	     12.27620026	      6.09543674	     -7.43241593	      7.29483855	     -1.07620429	     -0.19762024	    -29.93952059	    -28.29672899	     11.27599597	    101.11334621	     93.42576694	    -33.04873384	    -29.23823084	      7.16856576	    104.64740464	     93.87616146
      0.13333330	     -2.95293880	      1.76646300	     -1.99481433	     -0.12043276	      1.24770432	      0.06789215	      3.59424776	     -3.39073042	     -0.58844225	      3.69377324	      0.06446850	     12.66123641	      6.03400404	     -7.43921856	      2.22607035	      0.39198058	    -11.99697220	      2.38038823	      0.04154561	     11.83444089	      6.13310585	     -7.43921856	      7.13566131	     -1.17849845	     -0.10871024	    -31.73732779	    -29.16488362	     10.43053294	    102.46336785	     93.67974928	    -34.88267557	    -30.20925755	      6.72042214	    105.45464977	     94.31060961
      0.15000000	     -2.88857909	      1.81321967	     -2.16846646	     -0.12012850	      1.25142547	      0.06793249	      3.42297220	     -3.39762104	     -0.38220287	      3.45555410	      0.06031080	     12.17220375	      5.88049093	     -7.46241932	      2.11493559	      0.44273274	    -12.23839249	      2.19954173	      0.03838925	     11.23119702	      6.26335579	     -7.46241932	      6.96086890	     -1.20711594	      0.13051450	    -33.37951662	    -29.97731862	      9.96879856	    103.48766867	     94.15074593	    -36.43583639	    -30.84151556	      6.74007052	    105.58126757	     95.04603888
      0.16666670	     -2.68668630	      1.79794970	     -2.14253742	     -0.12133191	      1.25317266	      0.06766386	      3.06227495	     -3.38409024	     -0.44027242	      3.21968114	      0.05619404	     11.63309752	      5.84962524	     -7.47386443	      1.85696598	      0.45812680	    -12.34273799	      2.04436628	      0.03568092	     10.51363774	      6.07719136	     -7.47386443	      6.59492479	     -1.20178996	      0.13841065	    -34.76423742	    -30.92765849	      9.99867384	    104.46170204	     89.51009857	    -38.14142493	    -31.50110435	      6.81242922	    106.10978515	     90.30789939
      0.18333330	     -2.69766709	      1.79813420	     -2.20216803	     -0.12275823	      1.25272823	      0.06789231	      3.08369058	     -3.38539686	     -0.52916736	      3.13869453	      0.05478055	     11.18968980	      5.56296162	     -7.48258395	      1.91952041	      0.46215484	    -12.60066699	      2.01460233	      0.03516144	     10.05331466	      6.19564783	     -7.48258395	      6.34986757	     -1.20524687	      0.18642239	    -36.28485513	    -31.86807733	      9.34212559	    105.68299395	     94.36965409	    -39.80325436	    -32.02411488	      6.23257409	    106.79268781	     95.90438726
      0.20000000	     -2.57303387	      1.76297299	     -2.19328484	     -0.12416655	      1.25490228	      0.06920266	      2.95537958	     -3.29364907	     -0.78902321	      2.93057668	      0.05114821	     10.59368592	      5.26243789	     -7.48830992	      1.86673300	      0.40807542	    -12.78312489	      2.06063604	      0.03596488	      9.58290202	      6.11128324	     -7.48830992	      5.92013799	     -1.30112405	      0.17947325	    -37.35087972	    -33.01414381	      9.48055733	    106.78682213	     94.47449526	    -41.47707491	    -32.44600521	      5.86963810	    107.58496329	     96.44943755
      0.21666670	     -2.48311861	      1.75223282	     -2.14689512	     -0.12347813	      1.25294034	      0.06819824	      2.86985927	     -3.23754939	     -0.88282160	      2.75356828	      0.04805883	     10.22755386	      5.29491931	     -7.49188544	      1.88334848	      0.38761351	    -12.88392138	      2.18640909	      0.03816004	      9.28862124	      5.98689757	     -7.49188544	      5.56922862	     -1.38172187	      0.36383541	    -39.15274101	    -34.14701857	      9.13075788	    108.40062482	     94.93716063	    -43.06165228	    -33.06619523	      5.73081601	    108.78162036	     97.22635490
